mtllib crossbow_ammo.mtl
# vertices
v -48 0 -32
v -48 -16 -16
v -48 0 -0
v -48 16 -16
v 48 0 -0
v 48 -16 -16
v 48 16 -16
v 48 0 -32
v 48 0 -32
v 48 -16 -16
v 48 0 -0
v 48 16 -16
v 96 0 -16
v -48 0 -0
v -48 -16 16
v -48 0 32
v -48 16 16
v 48 0 32
v 48 -16 16
v 48 16 16
v 48 0 -0
v 48 0 -0
v 48 -16 16
v 48 0 32
v 48 16 16
v 96 0 16
v -48 32 -32
v -48 16 -16
v -48 32 -0
v -48 48 -16
v 48 32 -0
v 48 16 -16
v 48 48 -16
v 48 32 -32
v 48 32 -32
v 48 16 -16
v 48 32 -0
v 48 48 -16
v 96 32 -16
v -48 32 -0
v -48 16 16
v -48 32 32
v -48 48 16
v 48 32 32
v 48 16 16
v 48 48 16
v 48 32 -0
v 48 32 -0
v 48 16 16
v 48 32 32
v 48 48 16
v 96 32 16
v -48 64 -32
v -48 48 -16
v -48 64 -0
v -48 80 -16
v 48 64 -0
v 48 48 -16
v 48 80 -16
v 48 64 -32
v 48 64 -32
v 48 48 -16
v 48 64 -0
v 48 80 -16
v 96 64 -16
v -48 64 -0
v -48 48 16
v -48 64 32
v -48 80 16
v 48 64 32
v 48 48 16
v 48 80 16
v 48 64 -0
v 48 64 -0
v 48 48 16
v 48 64 32
v 48 80 16
v 96 64 16

# texture coordinates
vt 2 -0
vt 1 -1
vt 0 -0
vt 1 1
vt 3 -0
vt -3 -0
vt -3 1
vt 3 1
vt -3 2
vt 3 2
vt 6 1
vt -1 -1
vt -2 -0
vt -1 1
vt 3 -2
vt -3 -2
vt -3 -1
vt 3 -1
vt 6 -1
vt 2 2
vt 0 2
vt 1 3
vt -2 2
vt -1 3
vt 6 -1.9999999
vt 3 -3
vt 3 -1.9999999
vt 6 -2
vt 3 -0.99999994
vt 2 4
vt 0 4
vt 1 5
vt -2 4
vt -1 5

# normals
vn -1 -0 -0
vn 0 -0.7071067811865476 0.7071067811865476
vn 0 0.7071067811865476 0.7071067811865476
vn 0 -0.7071067811865476 -0.7071067811865476
vn -0 0.7071067811865476 -0.7071067811865476
vn 1 0 -0
vn 0.22941573387056174 -0.6882472016116852 0.6882472016116852
vn 0.22941573387056174 0.6882472016116852 0.6882472016116852
vn 0.22941573387056174 -0.6882472016116852 -0.6882472016116852
vn 0.22941573387056174 0.6882472016116852 -0.6882472016116852

o entity0_brush0
usemtl flat_5_j
f  1/1/1  2/2/1  3/3/1  4/4/1
usemtl flat_5_j
f  5/5/2  3/6/2  2/7/2  6/8/2
usemtl flat_5_j
f  7/8/3  4/7/3  3/6/3  5/5/3
usemtl flat_5_j
f  6/8/4  2/7/4  1/9/4  8/10/4
usemtl flat_5_j
f  8/10/5  1/9/5  4/7/5  7/8/5
usemtl flat_5_j
f  5/3/6  6/2/6  8/1/6  7/4/6

o entity0_brush1
usemtl flat_5_j
f  9/1/1  10/2/1  11/3/1  12/4/1
usemtl flat_5_j
f  13/11/7  11/5/7  10/8/7
usemtl flat_5_j
f  12/8/8  11/5/8  13/11/8
usemtl flat_5_j
f  13/11/9  10/8/9  9/10/9
usemtl flat_5_j
f  12/8/10  13/11/10  9/10/10

o entity0_brush2
usemtl flat_5_j
f  14/3/1  15/12/1  16/13/1  17/14/1
usemtl flat_5_j
f  18/15/2  16/16/2  15/17/2  19/18/2
usemtl flat_5_j
f  20/18/3  17/17/3  16/16/3  18/15/3
usemtl flat_5_j
f  19/18/4  15/17/4  14/6/4  21/5/4
usemtl flat_5_j
f  21/5/5  14/6/5  17/17/5  20/18/5
usemtl flat_5_j
f  20/14/6  18/13/6  19/12/6  21/3/6

o entity0_brush3
usemtl flat_5_j
f  22/3/1  23/12/1  24/13/1  25/14/1
usemtl flat_5_j
f  26/19/7  24/15/7  23/18/7
usemtl flat_5_j
f  25/18/8  24/15/8  26/19/8
usemtl flat_5_j
f  26/19/9  23/18/9  22/5/9
usemtl flat_5_j
f  26/19/10  22/5/10  25/18/10

o entity0_brush4
usemtl flat_5_j
f  27/20/1  28/4/1  29/21/1  30/22/1
usemtl flat_5_j
f  31/5/2  29/6/2  28/7/2  32/8/2
usemtl flat_5_j
f  33/8/3  30/7/3  29/6/3  31/5/3
usemtl flat_5_j
f  32/8/4  28/7/4  27/9/4  34/10/4
usemtl flat_5_j
f  34/10/5  27/9/5  30/7/5  33/8/5
usemtl flat_5_j
f  32/4/6  34/20/6  33/22/6  31/21/6

o entity0_brush5
usemtl flat_5_j
f  35/20/1  36/4/1  37/21/1  38/22/1
usemtl flat_5_j
f  39/11/7  37/5/7  36/8/7
usemtl flat_5_j
f  38/8/8  37/5/8  39/11/8
usemtl flat_5_j
f  39/11/9  36/8/9  35/10/9
usemtl flat_5_j
f  38/8/10  39/11/10  35/10/10

o entity0_brush6
usemtl flat_5_j
f  40/21/1  41/14/1  42/23/1  43/24/1
usemtl flat_5_j
f  44/15/2  42/16/2  41/17/2  45/18/2
usemtl flat_5_j
f  46/18/3  43/17/3  42/16/3  44/15/3
usemtl flat_5_j
f  45/18/4  41/17/4  40/6/4  47/5/4
usemtl flat_5_j
f  47/5/5  40/6/5  43/17/5  46/18/5
usemtl flat_5_j
f  44/23/6  45/14/6  47/21/6  46/24/6

o entity0_brush7
usemtl flat_5_j
f  48/21/1  49/14/1  50/23/1  51/24/1
usemtl flat_5_j
f  52/25/7  50/26/7  49/27/7
usemtl flat_5_j
f  51/27/8  50/26/8  52/25/8
usemtl flat_5_j
f  52/28/9  49/15/9  48/29/9
usemtl flat_5_j
f  51/15/10  52/28/10  48/29/10

o entity0_brush8
usemtl flat_5_j
f  53/30/1  54/22/1  55/31/1  56/32/1
usemtl flat_5_j
f  57/5/2  55/6/2  54/7/2  58/8/2
usemtl flat_5_j
f  59/8/3  56/7/3  55/6/3  57/5/3
usemtl flat_5_j
f  58/8/4  54/7/4  53/9/4  60/10/4
usemtl flat_5_j
f  60/10/5  53/9/5  56/7/5  59/8/5
usemtl flat_5_j
f  58/22/6  60/30/6  59/32/6  57/31/6

o entity0_brush9
usemtl flat_5_j
f  61/30/1  62/22/1  63/31/1  64/32/1
usemtl flat_5_j
f  65/11/7  63/5/7  62/8/7
usemtl flat_5_j
f  64/8/8  63/5/8  65/11/8
usemtl flat_5_j
f  65/11/9  62/8/9  61/10/9
usemtl flat_5_j
f  61/10/10  64/8/10  65/11/10

o entity0_brush10
usemtl flat_5_j
f  66/31/1  67/24/1  68/33/1  69/34/1
usemtl flat_5_j
f  70/15/2  68/16/2  67/17/2  71/18/2
usemtl flat_5_j
f  72/18/3  69/17/3  68/16/3  70/15/3
usemtl flat_5_j
f  71/18/4  67/17/4  66/6/4  73/5/4
usemtl flat_5_j
f  73/5/5  66/6/5  69/17/5  72/18/5
usemtl flat_5_j
f  71/24/6  73/31/6  72/34/6  70/33/6

o entity0_brush11
usemtl flat_5_j
f  74/31/1  75/24/1  76/33/1  77/34/1
usemtl flat_5_j
f  78/19/7  76/15/7  75/18/7
usemtl flat_5_j
f  77/18/8  76/15/8  78/19/8
usemtl flat_5_j
f  78/19/9  75/18/9  74/5/9
usemtl flat_5_j
f  74/5/10  77/18/10  78/19/10

