mtllib dash.mtl
# vertices
v 0 0 -16
v 0 0 16
v 0 32 16
v 0 32 -16
v 64 16 -0
v -48 0 -16
v -48 0 16
v -48 32 16
v -48 32 -16
v 0 32 16
v 0 0 16
v 0 0 -16
v 0 32 -16
v -48 16 -0
v -64 0 -16
v -48 0 -0
v -48 16 -16
v -48 0 -16
v -48 16 -0
v -64 0 16
v -48 16 16
v -48 0 -0
v -48 0 16
v -48 16 16
v -64 32 16
v -48 16 -0
v -48 32 -0
v -48 32 16
v -48 32 -0
v -64 32 -16
v -48 16 -0
v -48 16 -16
v -48 32 -16

# texture coordinates
vt 1 -0
vt -1 -0
vt -1 2
vt 1 2
vt 0 2
vt 0 -0
vt 4 1
vt 4 -0
vt 0 -1
vt 0 1
vt -3 2
vt -3 -0
vt -3 -1
vt -3 1
vt -0.5 0.5
vt 0.5 -0.5
vt -0.5 -0.5
vt -4 1
vt -4 -0
vt 1 1
vt 2.5 -0.49999994
vt 3.5 -1.5
vt 2.5 -1.5
vt -0.9999999 -0
vt -1.9999999 -0
vt -0.9999999 -1
vt -3 -2
vt -4 -2
vt -3 -0.99999994
vt -1 -1
vt 0.5 -1.5000001
vt 1.5 -2.5
vt 0.5 -2.5
vt 1 -2
vt 1 -1
vt 0 -2
vt -0.9999999 1
vt -1.9999999 1
vt -0.9999999 5.9604645e-08
vt -3 5.9604645e-08
vt 2 -1
vt 2 -0

# normals
vn -1 0 0
vn 0.24253562503633297 0 0.9701425001453319
vn 0.24253562503633297 -0.9701425001453319 -0
vn 0.24253562503633297 0.9701425001453319 -0
vn 0.24253562503633297 -0 -0.9701425001453319
vn 0 0 1
vn 0 -1 -0
vn -0 1 -0
vn 0 -0 -1
vn 1 0 0
vn -0.7071067811865475 0 0.7071067811865475
vn -0.7071067811865475 0.7071067811865475 -0
vn -0.7071067811865475 0 -0.7071067811865475
vn -0.7071067811865475 -0.7071067811865475 -0

o entity0_brush0
usemtl flat_1_c
f  1/1/1  2/2/1  3/3/1  4/4/1
usemtl flat_1_c
f  3/5/2  2/6/2  5/7/2
usemtl flat_1_c
f  5/8/3  2/9/3  1/10/3
usemtl flat_1_c
f  4/10/4  3/9/4  5/8/4
usemtl flat_1_c
f  1/6/5  4/5/5  5/7/5

o entity0_brush1
usemtl flat_16_n_fbr
f  6/1/1  7/2/1  8/3/1  9/4/1
usemtl flat_16_n_fbr
f  10/5/6  8/11/6  7/12/6  11/6/6
usemtl flat_16_n_fbr
f  11/9/7  7/13/7  6/14/7  12/10/7
usemtl flat_16_n_fbr
f  13/10/8  9/14/8  8/13/8  10/9/8
usemtl flat_16_n_fbr
f  12/6/9  6/12/9  9/11/9  13/5/9
usemtl flat_16_n_fbr
f  13/4/10  10/3/10  11/2/10  12/1/10

o entity0_brush2
usemtl flat_1_c
f  14/15/11  15/16/11  16/17/11
usemtl flat_1_c
f  17/14/12  15/18/12  14/12/12
usemtl flat_1_c
f  16/12/7  15/18/7  18/14/7
usemtl flat_1_c
f  18/12/9  15/19/9  17/14/9
usemtl flat_1_c
f  17/20/10  14/10/10  16/6/10  18/1/10

o entity0_brush3
usemtl flat_1_c
f  19/21/12  20/22/12  21/23/12
usemtl flat_1_c
f  22/24/13  20/25/13  19/26/13
usemtl flat_1_c
f  21/13/6  20/19/6  23/12/6
usemtl flat_1_c
f  23/27/7  20/28/7  22/29/7
usemtl flat_1_c
f  22/6/10  19/2/10  21/30/10  23/9/10

o entity0_brush4
usemtl flat_1_c
f  24/14/14  25/18/14  26/12/14
usemtl flat_1_c
f  26/31/13  25/32/13  27/33/13
usemtl flat_1_c
f  28/27/6  25/28/6  24/13/6
usemtl flat_1_c
f  27/12/8  25/18/8  28/14/8
usemtl flat_1_c
f  28/34/10  24/35/10  26/9/10  27/36/10

o entity0_brush5
usemtl flat_1_c
f  29/37/11  30/38/11  31/39/11
usemtl flat_1_c
f  31/21/14  30/22/14  32/23/14
usemtl flat_1_c
f  33/27/8  30/28/8  29/29/8
usemtl flat_1_c
f  32/40/9  30/18/9  33/14/9
usemtl flat_1_c
f  33/41/10  29/42/10  31/1/10  32/35/10

