mtllib prism.mtl
# vertices
v -11.313708498983033 11.313708498983033 -22.627416997969704
v -27.313708498983033 -4.686291501016967 -0
v -11.313708498983036 11.31370849898303 22.627416997969515
v 4.68629150101696 27.313708498983033 -0
v 11.313708498983033 -11.313708498990309 22.627416997969508
v -4.6862915010152335 -27.31370849898476 -0
v 11.313708498984763 -11.313708498984763 -22.627416997969696
v 27.31370849898667 4.686291501013329 -0

# texture coordinates
vt 1.3333335 -0.9428089
vt -0.6666666 -0.9428091
vt -1.3333334 0.9428089
vt 0.6666666 0.94280916
vt 1 -4.545253e-13
vt -1 -6.661338e-16
vt -1 -2
vt 1 -2
vt -1 -2.220446e-16
vt 1 2.220446e-16
vt 1 2
vt -1 2
vt 1.3333334 -0.9428089
vt 0.6666666 0.9428091
vt -1.3333335 0.9428089
vt -0.6666666 -0.94280916

# normals
vn -0.7071067811865476 0.7071067811865475 -0
vn -0.49999999999999994 -0.5000000000000001 0.7071067811865476
vn -0.49999999999999994 -0.5000000000000001 -0.7071067811865476
vn 0.4999999999999999 0.5000000000000001 0.7071067811865477
vn 0.49999999999999994 0.5000000000000001 -0.7071067811865476
vn 0.7071067811865476 -0.7071067811865475 -0

o entity0_brush0
usemtl flat_14_a
f  1/1/1  2/2/1  3/3/1  4/4/1
usemtl flat_14_a
f  5/5/2  3/6/2  2/7/2  6/8/2
usemtl flat_14_a
f  6/8/3  2/7/3  1/9/3  7/10/3
usemtl flat_14_a
f  8/11/4  4/12/4  3/6/4  5/5/4
usemtl flat_14_a
f  7/10/5  1/9/5  4/12/5  8/11/5
usemtl flat_14_a
f  7/13/6  8/14/6  5/15/6  6/16/6

