mtllib shotgun_ammo.mtl
# vertices
v -48 -16 -16
v -48 -16 16
v -48 16 16
v -48 16 -16
v 48 16 16
v 48 -16 16
v 48 -16 -16
v 48 16 -16
v 32 32 16
v 16 32 -0
v 16 16 -0
v 32 16 16
v 32 16 -16
v 32 32 -16
v 48 16 -0
v 48 32 -0
v -32 32 16
v -48 32 -0
v -48 16 -0
v -32 16 16
v -32 16 -16
v -32 32 -16
v -16 16 -0
v -16 32 -0

# texture coordinates
vt 1 -1
vt -1 -1
vt -1 1
vt 1 1
vt 3 1
vt -3 1
vt -3 -1
vt 3 -1
vt -1 2
vt 0 2
vt 0 1
vt 1 2
vt 3 -0
vt 2 -1
vt 1 -0
vt 2 1
vt -1 -0
vt -2 -1
vt -3 -0
vt -2 1

# normals
vn -1 0 0
vn 0 0 1
vn 0 -1 -0
vn -0 1 -0
vn 0 -0 -1
vn 1 0 0
vn -0.7071067811865475 0 0.7071067811865475
vn -0.7071067811865475 0 -0.7071067811865475
vn 0.7071067811865475 0 0.7071067811865475
vn 0.7071067811865475 0 -0.7071067811865475

o entity0_brush0
usemtl flat_2_a
f  1/1/1  2/2/1  3/3/1  4/4/1
usemtl flat_2_a
f  5/5/2  3/6/2  2/7/2  6/8/2
usemtl flat_2_a
f  6/8/3  2/7/3  1/6/3  7/5/3
usemtl flat_2_a
f  8/5/4  4/6/4  3/7/4  5/8/4
usemtl flat_2_a
f  7/8/5  1/7/5  4/6/5  8/5/5
usemtl flat_2_a
f  8/4/6  5/3/6  6/2/6  7/1/6

o entity0_brush1
usemtl flat_3_c
f  9/9/7  10/10/7  11/11/7  12/3/7
usemtl flat_3_c
f  13/4/8  11/11/8  10/10/8  14/12/8
usemtl flat_3_c
f  15/13/3  12/14/3  11/15/3  13/16/3
usemtl flat_3_c
f  14/16/4  10/15/4  9/14/4  16/13/4
usemtl flat_3_c
f  16/10/9  9/9/9  12/3/9  15/11/9
usemtl flat_3_c
f  13/4/10  14/12/10  16/10/10  15/11/10

o entity0_brush2
usemtl flat_3_c
f  17/9/7  18/10/7  19/11/7  20/3/7
usemtl flat_3_c
f  21/4/8  19/11/8  18/10/8  22/12/8
usemtl flat_3_c
f  23/17/3  20/18/3  19/19/3  21/20/3
usemtl flat_3_c
f  22/20/4  18/19/4  17/18/4  24/17/4
usemtl flat_3_c
f  24/10/9  17/9/9  20/3/9  23/11/9
usemtl flat_3_c
f  22/12/10  24/10/10  23/11/10  21/4/10

