mtllib unnamed.mtl
# vertices
v -16 -16 -0
v -16 -16 32
v -16 16 32
v -16 16 -0
v 16 16 32
v 16 -16 32
v 16 -16 -0
v 16 16 -0
v 0 -16 -0
v -16 0 -0
v -16 0 -144
v 0 -16 -144
v 0 16 -144
v 0 16 -0
v 16 0 -0
v 16 0 -144

# texture coordinates
vt 0 -1
vt -2 -1
vt -2 1
vt 0 1
vt 1 1
vt -1 1
vt -1 -1
vt 1 -1
vt 1 -2
vt -1 -2
vt -1 -0
vt 1 -0
vt 0 -0
vt -1 9
vt 0 9
vt 1 9

# normals
vn -1 0 0
vn 0 0 1
vn 0 -1 -0
vn -0 1 -0
vn 0 -0 -1
vn 1 0 0
vn -0.7071067811865476 -0.7071067811865476 -0
vn -0.7071067811865476 0.7071067811865476 -0
vn 0.7071067811865476 -0.7071067811865476 -0
vn 0.7071067811865476 0.7071067811865476 -0

o entity0_brush0
usemtl flat_7_c
f  1/1/1  2/2/1  3/3/1  4/4/1
usemtl flat_7_c
f  5/5/2  3/6/2  2/7/2  6/8/2
usemtl flat_7_c
f  6/9/3  2/10/3  1/11/3  7/12/3
usemtl flat_7_c
f  8/12/4  4/11/4  3/10/4  5/9/4
usemtl flat_7_c
f  7/8/5  1/7/5  4/6/5  8/5/5
usemtl flat_7_c
f  8/4/6  5/3/6  6/2/6  7/1/6

o entity0_brush1
usemtl flat_7_a
f  9/13/7  10/11/7  11/14/7  12/15/7
usemtl flat_7_a
f  13/15/8  11/14/8  10/11/8  14/13/8
usemtl flat_7_a
f  14/4/2  10/11/2  9/1/2  15/12/2
usemtl flat_7_a
f  16/12/5  12/1/5  11/11/5  13/4/5
usemtl flat_7_a
f  15/12/9  9/13/9  12/15/9  16/16/9
usemtl flat_7_a
f  16/16/10  13/15/10  14/13/10  15/12/10

